<svg xmlns="http://www.w3.org/2000/svg" viewBox="0 0 153.82 128"><title>home-icon-settings</title><path d="M118.08,128H118c-.17-.06-.33-.13-.5-.18-1.16-.38-2.34-.7-3.49-1.13a25.41,25.41,0,0,1-4.65-2.29c1.28-2.87,1.13-5.6-.94-8-2.45-2.79-5.5-3.17-8.85-1.72a29.06,29.06,0,0,1-3.68-8.61c3.1-1.21,5-3.34,5.06-6.64.1-3.59-1.82-5.9-5.16-7.17a29.41,29.41,0,0,1,3.56-8.73c3,1.4,5.85,1.25,8.3-1,2.71-2.5,3-5.54,1.46-8.85A29.24,29.24,0,0,1,117.87,70c1.09,3.07,3.14,5,6.39,5.2,3.79.24,6.22-1.74,7.51-5.23a29.1,29.1,0,0,1,8.72,3.61c-1.42,3-1.28,6,1.08,8.43s5.51,2.87,8.74,1.37a29.36,29.36,0,0,1,3.56,8.74c-3.52,1.66-5.11,3.66-5.13,6.72,0,3.55,1.84,5.84,5.11,7.1a29.37,29.37,0,0,1-3.62,8.67c-3.1-1.36-6-1.1-8.37,1.25s-2.74,5.32-1.38,8.47a29.15,29.15,0,0,1-8.69,3.59c-.14-.31-.24-.59-.37-.86a7.16,7.16,0,0,0-13.34.94Zm6.79-16.19a12.91,12.91,0,1,0-13-12.87V99A12.94,12.94,0,0,0,124.87,111.81Z" transform="translate(-0.05)" style="fill:#515151"/><path d="M39.07,101.76h-.2c-.29-.11-.58-.23-.88-.32-2-.66-4.11-1.24-6.11-2a44.4,44.4,0,0,1-8.16-4c2.25-5,2-9.82-1.66-14-4.29-4.89-9.63-5.56-15.52-3A50.62,50.62,0,0,1,.17,63.28c5.44-2.11,8.7-5.86,8.88-11.65.18-6.3-3.2-10.35-9-12.58A51.15,51.15,0,0,1,6.23,23.73c5.28,2.46,10.27,2.2,14.56-1.75,4.76-4.38,5.26-9.73,2.57-15.53A51.52,51.52,0,0,1,38.67.06c1.91,5.38,5.51,8.75,11.2,9.12,6.66.42,10.91-3,13.18-9.18A51.66,51.66,0,0,1,78.37,6.33c-2.5,5.36-2.25,10.46,1.89,14.79,4.37,4.58,9.66,5,15.33,2.41a51.31,51.31,0,0,1,6.28,15.28c-6.18,2.9-9,6.41-9,11.79,0,6.23,3.23,10.24,9,12.45a51.23,51.23,0,0,1-6.35,15.21c-5.43-2.38-10.45-1.93-14.67,2.19S76,89.79,78.42,95.32a51.45,51.45,0,0,1-15.25,6.3c-.24-.55-.43-1-.64-1.51a12.57,12.57,0,0,0-23.42,1.65ZM50.94,73.35A22.65,22.65,0,1,0,28.27,50.72v.15A22.66,22.66,0,0,0,50.94,73.35Z" transform="translate(-0.05)" style="fill:#515151"/></svg>