<svg xmlns="http://www.w3.org/2000/svg" viewBox="0 0 144 128"><title>home-icon-statistics</title><path d="M142,120H8V2A2,2,0,0,0,6,0H2A2,2,0,0,0,0,2V128H142a2,2,0,0,0,2-2v-4A2,2,0,0,0,142,120Z" style="fill:#515151"/><rect x="112" y="8" width="24" height="104" rx="2" ry="2" style="fill:#515151"/><rect x="80" y="32" width="24" height="80" rx="2" ry="2" style="fill:#515151"/><rect x="48" y="60" width="24" height="52" rx="2" ry="2" style="fill:#515151"/><rect x="16" y="52" width="24" height="60" rx="2" ry="2" style="fill:#515151"/></svg>