<svg xmlns="http://www.w3.org/2000/svg" viewBox="0 0 128.2 128.2"><title>home-icon-search</title><path d="M56,8A48,48,0,1,1,8,56,48,48,0,0,1,56,8m0-8a56,56,0,1,0,56,56A56,56,0,0,0,56,0Z" style="fill:#515151"/><path d="M60.2,33.4,46.8,46.8,33.4,60.2h0A13,13,0,1,0,51.8,78.6h0L65.2,65.2,78.6,51.8A13,13,0,1,0,60.2,33.4ZM75.8,48.9,62.4,62.4,49.6,49.6,63,36.2A9,9,0,0,1,75.8,48.9Z" style="fill:#515151"/><path d="M103.7,92.4a60.46,60.46,0,0,1-11.3,11.3L115.7,127a3.87,3.87,0,0,0,5.6,0l5.7-5.7a4,4,0,0,0,0-5.7L103.7,92.4Z" style="fill:#515151"/></svg>